<?xml version="1.0" encoding="UTF-8"?>
<svg id="Layer_2" data-name="Layer 2" xmlns="http://www.w3.org/2000/svg" viewBox="0 0 1154.99 1717.07">
  <defs>
    <style>
      .cls-1 {
        fill: #e4bc56;
      }
    </style>
  </defs>
  <g id="Layer_1-2" data-name="Layer 1">
    <path class="cls-1" d="M336.52,1473.08c6.64-18.49,10.81-25.66,17.26-45.8,5.52-17.23,13.38-32.95,20.02-49.77,3.16-7.99,6.67-15.45,9.28-23.55,3.98-12.36,8.35-23.96,13.03-36.06,3.2-8.28,5.59-16.26,9.76-24.19,6.87-13.06,16.5-46.94,25.93-67.4,4.57-9.91,8.35-19.63,11.86-30.07,6.34-18.83,13.58-36.6,20.92-54.99,2.24-5.62,5.22-10.34,7.31-15.98l10.55-28.43,9.24-24.89,12.17-29.76c3.49-8.54,8.06-16.41,9.44-25.93l-65.74-.47-391.18.06c-10.48,0-20.7-1.34-28.93-7.05-9.61-6.67-18.97-19.73-23.28-30.53-4.04-10.12-3.78-21.1-4.15-31.79-.49-14.14,8.25-30.91,17.1-41.72,7.15-8.74,12.69-18.36,20.69-26.45,9.64-9.74,17.61-19.99,26.4-30.54l34.54-41.46,15.39-18.42c10.03-12,20.01-23.2,29.97-35.21l18.18-21.91c10.84-13.07,21.76-25.4,31.99-38.99,4.08-5.42,8.52-9.81,12.95-15.02l57.83-67.97,22.95-27.18,8.89-11.06c10.36-12.89,21.65-24.3,31.52-37.59,5.17-6.97,11.42-12.36,16.88-18.99l23.03-27.98c3.96-4.81,7.92-9.36,11.89-14.2l13.89-16.96,35.47-41.53,25.01-31.07,23.38-26.67c13.7-15.63,25.89-31.64,39.47-47.45l23.04-26.81,7.76-9.65,29.03-34.72c5.93-7.09,11.95-13.51,18.65-21.35l24.89-29.13c15.38-18,29.42-36.21,44.79-54.22l16.64-19.49,48.75-57.92,21.86-25.29c24.22-28.02,71.07-39.79,101.78-18.91,4.35,2.96,9.19,6.91,12.27,11.64,4.09,6.29,8.21,13.48,9.89,21.02,4.84,21.62,1.71,43.65-6.01,63.94l-8.06,21.21-22.4,57.27c-5.48,14.01-10.06,27.56-16.03,41.32-9.04,20.84-17.14,41.19-24.02,62.91-2.44,7.7-5,15.3-8.5,22.37-7.93,16.02-12.74,32.34-19.27,48.93l-18.57,47.23c-4.11,10.45-9.22,19.8-12.42,30.59-6.02,20.31-13.88,39.07-22.34,58.47-10.55,24.19-17.32,50.15-28.04,73.35-8.41,18.21-13.52,37.03-21.23,55.6l-20.25,48.74c-3.3,7.95-7.51,15.26-9.1,24.14l445.92.07c13.79,0,28.19,3.74,39.45,10.71,7.34,4.55,13.46,10.61,18.98,17.07,3.74,4.38,4.45,10.48,6.61,15.49,4.11,9.52,3.88,18.79,2.81,28.75-.98,9.11-1.86,17.47-7.2,25.24-7.77,11.3-14.68,22.8-23.71,33.47l-69.13,81.7-59.13,70.01-70.15,83.68-31.17,36.95-36.75,44.14-28.05,33.02-25.66,30.29-35.42,42.56-20.91,24.11c-10.07,11.6-19.14,23.11-29.08,34.93l-42.54,50.59-71.16,84.7-34.96,41.17-62.07,73.72-37.92,45.22-29.28,34.58-28.86,34.31c-17.31,20.58-32.26,34.88-59.44,40-18.6,3.5-41.58-.29-55.86-13.59-7.13-6.65-14.83-15.66-17.23-25.63-4.64-19.21-4.27-41.23,2.53-59.83l15.58-42.68c8.9-24.38,20.61-46.67,27.74-71.75,2.93-10.32,8.46-19.27,12.05-29.27Z"/>
  </g>
</svg>